<svg width="38" height="30" viewBox="0 0 38 30" fill="none" id="svg494329582_1377">
    <g clip-path="url(#svg494329582_1377_clip0_192_974)">
        <path
            d="M36.8186 0.457764L28.2857 14.8156L25.8159 18.9724L24.53 21.1332L22.2044 25.0488L19.7327 20.9483L18.5088 18.9181V18.9161L16.0832 14.894L14.9174 12.9623L13.7716 14.892L11.4361 18.8237L5.21267 29.2921H0.249146L8.99841 14.7814L11.352 10.8779L12.5057 8.96233L14.8493 5.07487L17.2449 9.04876L18.4087 10.9804L20.8344 15.0026L22.0582 17.0327L23.3442 14.8719L25.8139 10.7151L31.9091 0.457764H36.8186Z"
            fill="white" />
        <path d="M10.1021 8.99248L7.74851 12.896L0.249146 0.457764H4.95628L10.1021 8.99248Z" fill="white" />
        <path d="M13.7135 3.18943L11.3699 7.07689L7.37988 0.457764H12.067L13.7135 3.18943Z" fill="white" />
        <path
            d="M29.4795 0.457764L24.5901 8.68494L22.1204 12.8417L19.6947 8.8176L22.1644 4.66281L24.6622 0.457764H29.4795Z"
            fill="white" />
        <path d="M37.0129 29.292H32.0374L27.0338 20.9905L29.5036 16.8357L37.0129 29.292Z" fill="white" />
        <path d="M29.4494 29.292H24.7623L23.4203 27.0689V27.0669L25.7478 23.1533L29.4494 29.292Z" fill="white" />
        <path
            d="M17.3612 20.8476L15.0256 24.7773L12.3415 29.2919H7.52625L12.5999 20.7532L14.9355 16.8235L17.3612 20.8476Z"
            fill="white" />
    </g>
    <defs>
        <clipPath id="svg494329582_1377_clip0_192_974">
            <rect width="36.7637" height="28.8343" fill="white" transform="translate(0.249146 0.457764)" />
        </clipPath>
    </defs>
</svg>