<svg width="37" height="42" viewBox="0 0 37 42" fill="none" id="svg-1157811314_5548">
    <g clip-path="url(#svg-1157811314_5548_clip0_194_999)">
        <g clip-path="url(#svg-1157811314_5548_clip1_194_999)">
            <g clip-path="url(#svg-1157811314_5548_clip2_194_999)">
                <g filter="url(#svg-1157811314_5548_filter0_d_194_999)">
                    <path
                        d="M11.1132 23.6519L6.11513 34.1991C5.95878 34.5195 6.12538 34.7195 6.64954 34.6182L10.7172 33.7442C10.7572 33.7304 10.7995 33.725 10.8416 33.7283C10.8837 33.7316 10.9247 33.7436 10.962 33.7634C10.9989 33.7833 11.0313 33.8104 11.0573 33.8433C11.0833 33.8761 11.1024 33.9139 11.1132 33.9544L12.9459 37.6709C13.1202 38.072 13.3227 38.1541 13.479 37.8349L18.7988 26.7943L11.1132 23.6519Z"
                        fill="url(#svg-1157811314_5548_paint0_linear_194_999)" />
                    <path
                        d="M26.515 23.6519L31.5131 34.1991C31.6797 34.5195 31.5041 34.7195 30.9787 34.6182L26.911 33.7442C26.8712 33.7306 26.8291 33.7254 26.7872 33.7287C26.7453 33.732 26.7046 33.7439 26.6675 33.7636C26.6304 33.7833 26.5977 33.8104 26.5715 33.8432C26.5453 33.876 26.526 33.9138 26.515 33.9544L24.6823 37.6709C24.508 38.072 24.3158 38.1541 24.1492 37.8349L18.8307 26.7943L26.515 23.6519Z"
                        fill="url(#svg-1157811314_5548_paint1_linear_194_999)" />
                    <path
                        d="M17.3111 29.8622C17.3111 29.8711 17.2919 29.8622 17.2727 29.8622C14.4893 29.5581 11.8765 28.3701 9.81778 26.4724C9.80881 26.4635 9.7819 26.4545 9.79087 26.4468L10.0215 25.9624C10.0305 25.9444 10.0485 25.9906 10.0574 25.9995C12.0272 27.8117 14.7608 28.951 17.5584 29.288C17.5687 29.288 17.5866 29.288 17.5866 29.297L17.3111 29.8622Z"
                        fill="#E8C736" />
                    <path
                        d="M18.8116 29.3545C26.0448 29.3545 31.9092 23.5503 31.9092 16.3915C31.9092 9.23268 26.0435 3.42847 18.8103 3.42847C11.5772 3.42847 5.71399 9.23268 5.71399 16.3915C5.71399 23.5503 11.5772 29.3545 18.8116 29.3545Z"
                        fill="url(#svg-1157811314_5548_paint2_linear_194_999)" />
                    <path opacity="0.9"
                        d="M19.1218 27.5285C25.1554 27.5285 30.0471 22.6868 30.0471 16.7147C30.0471 10.7426 25.1554 5.9021 19.1218 5.9021C13.0881 5.9021 8.19641 10.7426 8.19641 16.7147C8.19641 22.6868 13.0881 27.5285 19.1218 27.5285Z"
                        fill="url(#svg-1157811314_5548_paint3_linear_194_999)" />
                    <g filter="url(#svg-1157811314_5548_filter1_d_194_999)">
                        <path fill-rule="evenodd" clip-rule="evenodd"
                            d="M18.7514 21.6613H21.4363V11.2126H18.7514L16.0665 13.0235V15.3111L18.613 13.6092H18.7514V21.6613Z"
                            fill="white" />
                    </g>
                    <path
                        d="M20.3125 29.8675C20.3215 29.8752 20.3407 29.8675 20.3497 29.8675C23.2114 29.5112 25.8438 28.3719 27.8225 26.4957C27.8328 26.4867 27.8609 26.4778 27.8507 26.4688L27.62 25.9856C27.611 25.9677 27.5931 26.0126 27.5841 26.0215C25.6144 27.8349 22.8718 28.9563 20.0639 29.2921C20.0549 29.2921 20.037 29.2921 20.037 29.3011L20.3125 29.8675Z"
                        fill="#E8C736" />
                </g>
            </g>
        </g>
    </g>
    <defs>
        <filter id="svg-1157811314_5548_filter0_d_194_999" x="3.25851" y="2.04053" width="31.1062" height="39.5133"
            filterUnits="userSpaceOnUse" color-interpolation-filters="sRGB">
            <feFlood flood-opacity="0" result="BackgroundImageFix" />
            <feColorMatrix in="SourceAlpha" type="matrix" values="0 0 0 0 0 0 0 0 0 0 0 0 0 0 0 0 0 0 127 0"
                result="hardAlpha" />
            <feOffset dy="1.06754" />
            <feGaussianBlur stdDeviation="1.22774" />
            <feComposite in2="hardAlpha" operator="out" />
            <feColorMatrix type="matrix" values="0 0 0 0 0 0 0 0 0 0 0 0 0 0 0 0 0 0 0.25 0" />
            <feBlend mode="normal" in2="BackgroundImageFix" result="effect1_dropShadow_194_999" />
            <feBlend mode="normal" in="SourceGraphic" in2="effect1_dropShadow_194_999" result="shape" />
        </filter>
        <filter id="svg-1157811314_5548_filter1_d_194_999" x="14.6773" y="10.891" width="8.14819" height="13.2269"
            filterUnits="userSpaceOnUse" color-interpolation-filters="sRGB">
            <feFlood flood-opacity="0" result="BackgroundImageFix" />
            <feColorMatrix in="SourceAlpha" type="matrix" values="0 0 0 0 0 0 0 0 0 0 0 0 0 0 0 0 0 0 127 0"
                result="hardAlpha" />
            <feOffset dy="1.06754" />
            <feGaussianBlur stdDeviation="0.694609" />
            <feComposite in2="hardAlpha" operator="out" />
            <feColorMatrix type="matrix" values="0 0 0 0 0 0 0 0 0 0 0 0 0 0 0 0 0 0 0.12 0" />
            <feBlend mode="normal" in2="BackgroundImageFix" result="effect1_dropShadow_194_999" />
            <feBlend mode="normal" in="SourceGraphic" in2="effect1_dropShadow_194_999" result="shape" />
        </filter>
        <linearGradient id="svg-1157811314_5548_paint0_linear_194_999" x1="6.9626" y1="23.6519" x2="14.3111"
            y2="36.9999" gradientUnits="userSpaceOnUse">
            <stop offset="0.294" stop-color="#F1A100" />
            <stop offset="0.698" stop-color="#FFCB86" />
            <stop offset="0.91" stop-color="#FFFFB8" />
        </linearGradient>
        <linearGradient id="svg-1157811314_5548_paint1_linear_194_999" x1="19.7347" y1="23.6519" x2="27.0822"
            y2="37.0014" gradientUnits="userSpaceOnUse">
            <stop offset="0.294" stop-color="#F1A100" />
            <stop offset="0.698" stop-color="#FFCB86" />
            <stop offset="0.91" stop-color="#FFFFB8" />
        </linearGradient>
        <linearGradient id="svg-1157811314_5548_paint2_linear_194_999" x1="7.57226" y1="3.42847" x2="19.8509"
            y2="28.8624" gradientUnits="userSpaceOnUse">
            <stop offset="0.294" stop-color="#F1A100" />
            <stop offset="0.698" stop-color="#FFCB86" />
            <stop offset="0.91" stop-color="#FFFFB8" />
        </linearGradient>
        <linearGradient id="svg-1157811314_5548_paint3_linear_194_999" x1="7.66328" y1="4.35525" x2="26.0486"
            y2="30.1801" gradientUnits="userSpaceOnUse">
            <stop stop-color="#D8923D" />
            <stop offset="0.294" stop-color="#D8923D" />
            <stop offset="0.698" stop-color="#FFCB86" />
            <stop offset="0.91" stop-color="#FFFFB8" />
        </linearGradient>
        <clipPath id="svg-1157811314_5548_clip0_194_999">
            <rect width="35.8951" height="41.0101" fill="white" transform="translate(0.910645 0.865479)" />
        </clipPath>
        <clipPath id="svg-1157811314_5548_clip1_194_999">
            <rect width="35.8951" height="41.0101" fill="white" transform="translate(0.910645 0.865479)" />
        </clipPath>
        <clipPath id="svg-1157811314_5548_clip2_194_999">
            <rect width="33.3207" height="41.0101" fill="white" transform="translate(2.19788 0.865479)" />
        </clipPath>
    </defs>
</svg>